<?xml version="1.0" encoding="UTF-8"?>
<!DOCTYPE xmeml>

<!--本字幕由 Arctime Pro 2.2.1创建-->
<!--软件网址 arctime.cn-->
<xmeml version="5">
  <sequence id="XML字幕序列">
    <updatebehavior>add</updatebehavior>
    <name>XML字幕序列_25.0p_Subtitle</name>
    <duration>1090</duration>
    <rate>
      <ntsc>FALSE</ntsc>
      <timebase>25</timebase>
    </rate>
    <timecode>
      <rate>
        <ntsc>FALSE</ntsc>
        <timebase>25</timebase>
      </rate>
      <string>01:00:00:00</string>
      <frame>90000</frame>
      <source>source</source>
      <displayformat>NDF</displayformat>
    </timecode>
    <in>0</in>
    <out>1090</out>
    <width>1920</width>
    <height>1080</height>
    <media>
      <video>
        <format>
          <samplecharacteristics>
            <rate>
              <ntsc>FALSE</ntsc>
              <timebase>25</timebase>
            </rate>
            <width>1920</width>
            <height>1080</height>
            <pixelaspectratio>Square</pixelaspectratio>
            <anamorphic>FALSE</anamorphic>
          </samplecharacteristics>
        </format>
        <track>
          <enabled>TRUE</enabled>
          <locked>FALSE</locked>
        </track>
        <track>
          <clipitem id="Subtitle_IMG_0001.png">
            <!--玩音乐的朋友自己作词作曲发过歌-->
            <name>Subtitle_IMG_0001.png</name>
            <duration>3251</duration>
            <rate>
              <ntsc>FALSE</ntsc>
              <timebase>25</timebase>
            </rate>
            <in>1500</in>
            <out>1553</out>
            <start>0</start>
            <end>53</end>
            <pixelaspectratio>Square</pixelaspectratio>
            <stillframe>TRUE</stillframe>
            <anamorphic>FALSE</anamorphic>
            <alphatype>straight</alphatype>
            <masterclipid>Subtitle_IMG_0001.png1</masterclipid>
            <file id="Subtitle_IMG_0001">
              <name>Subtitle_IMG_0001.png</name>
              <pathurl>D:/W_BW/source/ff/Subtitle_IMG_0001.png</pathurl>
              <rate>
                <ntsc>FALSE</ntsc>
                <timebase>25</timebase>
              </rate>
              <duration>2</duration>
              <width>1920</width>
              <height>1080</height>
              <media>
                <video>
                  <duration>2</duration>
                  <stillframe>TRUE</stillframe>
                  <samplecharacteristics>
                    <rate>
                      <ntsc>FALSE</ntsc>
                      <timebase>25</timebase>
                    </rate>
                    <width>1920</width>
                    <height>1080</height>
                    <pixelaspectratio>Square</pixelaspectratio>
                    <anamorphic>FALSE</anamorphic>
                  </samplecharacteristics>
                </video>
              </media>
            </file>
            <sourcetrack>
              <mediatype>video</mediatype>
            </sourcetrack>
            <fielddominance>none</fielddominance>
          </clipitem>
          <clipitem id="Subtitle_IMG_0002.png">
            <!--画画的朋友约过稿拿过奖-->
            <name>Subtitle_IMG_0002.png</name>
            <duration>3251</duration>
            <rate>
              <ntsc>FALSE</ntsc>
              <timebase>25</timebase>
            </rate>
            <in>1500</in>
            <out>1557</out>
            <start>53</start>
            <end>110</end>
            <pixelaspectratio>Square</pixelaspectratio>
            <stillframe>TRUE</stillframe>
            <anamorphic>FALSE</anamorphic>
            <alphatype>straight</alphatype>
            <masterclipid>Subtitle_IMG_0002.png1</masterclipid>
            <file id="Subtitle_IMG_0002">
              <name>Subtitle_IMG_0002.png</name>
              <pathurl>D:/W_BW/source/ff/Subtitle_IMG_0002.png</pathurl>
              <rate>
                <ntsc>FALSE</ntsc>
                <timebase>25</timebase>
              </rate>
              <duration>2</duration>
              <width>1920</width>
              <height>1080</height>
              <media>
                <video>
                  <duration>2</duration>
                  <stillframe>TRUE</stillframe>
                  <samplecharacteristics>
                    <rate>
                      <ntsc>FALSE</ntsc>
                      <timebase>25</timebase>
                    </rate>
                    <width>1920</width>
                    <height>1080</height>
                    <pixelaspectratio>Square</pixelaspectratio>
                    <anamorphic>FALSE</anamorphic>
                  </samplecharacteristics>
                </video>
              </media>
            </file>
            <sourcetrack>
              <mediatype>video</mediatype>
            </sourcetrack>
            <fielddominance>none</fielddominance>
          </clipitem>
          <clipitem id="Subtitle_IMG_0003.png">
            <!--专注学业的朋友进了至善拿了奖-->
            <name>Subtitle_IMG_0003.png</name>
            <duration>3251</duration>
            <rate>
              <ntsc>FALSE</ntsc>
              <timebase>25</timebase>
            </rate>
            <in>1500</in>
            <out>1550</out>
            <start>123</start>
            <end>173</end>
            <pixelaspectratio>Square</pixelaspectratio>
            <stillframe>TRUE</stillframe>
            <anamorphic>FALSE</anamorphic>
            <alphatype>straight</alphatype>
            <masterclipid>Subtitle_IMG_0003.png1</masterclipid>
            <file id="Subtitle_IMG_0003">
              <name>Subtitle_IMG_0003.png</name>
              <pathurl>D:/W_BW/source/ff/Subtitle_IMG_0003.png</pathurl>
              <rate>
                <ntsc>FALSE</ntsc>
                <timebase>25</timebase>
              </rate>
              <duration>2</duration>
              <width>1920</width>
              <height>1080</height>
              <media>
                <video>
                  <duration>2</duration>
                  <stillframe>TRUE</stillframe>
                  <samplecharacteristics>
                    <rate>
                      <ntsc>FALSE</ntsc>
                      <timebase>25</timebase>
                    </rate>
                    <width>1920</width>
                    <height>1080</height>
                    <pixelaspectratio>Square</pixelaspectratio>
                    <anamorphic>FALSE</anamorphic>
                  </samplecharacteristics>
                </video>
              </media>
            </file>
            <sourcetrack>
              <mediatype>video</mediatype>
            </sourcetrack>
            <fielddominance>none</fielddominance>
          </clipitem>
          <clipitem id="Subtitle_IMG_0004.png">
            <!--而我，就像wow里的德鲁伊-->
            <name>Subtitle_IMG_0004.png</name>
            <duration>3251</duration>
            <rate>
              <ntsc>FALSE</ntsc>
              <timebase>25</timebase>
            </rate>
            <in>1500</in>
            <out>1542</out>
            <start>190</start>
            <end>232</end>
            <pixelaspectratio>Square</pixelaspectratio>
            <stillframe>TRUE</stillframe>
            <anamorphic>FALSE</anamorphic>
            <alphatype>straight</alphatype>
            <masterclipid>Subtitle_IMG_0004.png1</masterclipid>
            <file id="Subtitle_IMG_0004">
              <name>Subtitle_IMG_0004.png</name>
              <pathurl>D:/W_BW/source/ff/Subtitle_IMG_0004.png</pathurl>
              <rate>
                <ntsc>FALSE</ntsc>
                <timebase>25</timebase>
              </rate>
              <duration>2</duration>
              <width>1920</width>
              <height>1080</height>
              <media>
                <video>
                  <duration>2</duration>
                  <stillframe>TRUE</stillframe>
                  <samplecharacteristics>
                    <rate>
                      <ntsc>FALSE</ntsc>
                      <timebase>25</timebase>
                    </rate>
                    <width>1920</width>
                    <height>1080</height>
                    <pixelaspectratio>Square</pixelaspectratio>
                    <anamorphic>FALSE</anamorphic>
                  </samplecharacteristics>
                </video>
              </media>
            </file>
            <sourcetrack>
              <mediatype>video</mediatype>
            </sourcetrack>
            <fielddominance>none</fielddominance>
          </clipitem>
          <clipitem id="Subtitle_IMG_0005.png">
            <!--什么都会但什么都不精-->
            <name>Subtitle_IMG_0005.png</name>
            <duration>3251</duration>
            <rate>
              <ntsc>FALSE</ntsc>
              <timebase>25</timebase>
            </rate>
            <in>1500</in>
            <out>1536</out>
            <start>244</start>
            <end>280</end>
            <pixelaspectratio>Square</pixelaspectratio>
            <stillframe>TRUE</stillframe>
            <anamorphic>FALSE</anamorphic>
            <alphatype>straight</alphatype>
            <masterclipid>Subtitle_IMG_0005.png1</masterclipid>
            <file id="Subtitle_IMG_0005">
              <name>Subtitle_IMG_0005.png</name>
              <pathurl>D:/W_BW/source/ff/Subtitle_IMG_0005.png</pathurl>
              <rate>
                <ntsc>FALSE</ntsc>
                <timebase>25</timebase>
              </rate>
              <duration>2</duration>
              <width>1920</width>
              <height>1080</height>
              <media>
                <video>
                  <duration>2</duration>
                  <stillframe>TRUE</stillframe>
                  <samplecharacteristics>
                    <rate>
                      <ntsc>FALSE</ntsc>
                      <timebase>25</timebase>
                    </rate>
                    <width>1920</width>
                    <height>1080</height>
                    <pixelaspectratio>Square</pixelaspectratio>
                    <anamorphic>FALSE</anamorphic>
                  </samplecharacteristics>
                </video>
              </media>
            </file>
            <sourcetrack>
              <mediatype>video</mediatype>
            </sourcetrack>
            <fielddominance>none</fielddominance>
          </clipitem>
          <clipitem id="Subtitle_IMG_0006.png">
            <!--好的，说了这么多，让我们验收一下成果-->
            <name>Subtitle_IMG_0006.png</name>
            <duration>3251</duration>
            <rate>
              <ntsc>FALSE</ntsc>
              <timebase>25</timebase>
            </rate>
            <in>1500</in>
            <out>1551</out>
            <start>310</start>
            <end>361</end>
            <pixelaspectratio>Square</pixelaspectratio>
            <stillframe>TRUE</stillframe>
            <anamorphic>FALSE</anamorphic>
            <alphatype>straight</alphatype>
            <masterclipid>Subtitle_IMG_0006.png1</masterclipid>
            <file id="Subtitle_IMG_0006">
              <name>Subtitle_IMG_0006.png</name>
              <pathurl>D:/W_BW/source/ff/Subtitle_IMG_0006.png</pathurl>
              <rate>
                <ntsc>FALSE</ntsc>
                <timebase>25</timebase>
              </rate>
              <duration>2</duration>
              <width>1920</width>
              <height>1080</height>
              <media>
                <video>
                  <duration>2</duration>
                  <stillframe>TRUE</stillframe>
                  <samplecharacteristics>
                    <rate>
                      <ntsc>FALSE</ntsc>
                      <timebase>25</timebase>
                    </rate>
                    <width>1920</width>
                    <height>1080</height>
                    <pixelaspectratio>Square</pixelaspectratio>
                    <anamorphic>FALSE</anamorphic>
                  </samplecharacteristics>
                </video>
              </media>
            </file>
            <sourcetrack>
              <mediatype>video</mediatype>
            </sourcetrack>
            <fielddominance>none</fielddominance>
          </clipitem>
          <clipitem id="Subtitle_IMG_0007.png">
            <!--这些是我在B站上的投稿-->
            <name>Subtitle_IMG_0007.png</name>
            <duration>3251</duration>
            <rate>
              <ntsc>FALSE</ntsc>
              <timebase>25</timebase>
            </rate>
            <in>1500</in>
            <out>1533</out>
            <start>678</start>
            <end>712</end>
            <pixelaspectratio>Square</pixelaspectratio>
            <stillframe>TRUE</stillframe>
            <anamorphic>FALSE</anamorphic>
            <alphatype>straight</alphatype>
            <masterclipid>Subtitle_IMG_0007.png1</masterclipid>
            <file id="Subtitle_IMG_0007">
              <name>Subtitle_IMG_0007.png</name>
              <pathurl>D:/W_BW/source/ff/Subtitle_IMG_0007.png</pathurl>
              <rate>
                <ntsc>FALSE</ntsc>
                <timebase>25</timebase>
              </rate>
              <duration>2</duration>
              <width>1920</width>
              <height>1080</height>
              <media>
                <video>
                  <duration>2</duration>
                  <stillframe>TRUE</stillframe>
                  <samplecharacteristics>
                    <rate>
                      <ntsc>FALSE</ntsc>
                      <timebase>25</timebase>
                    </rate>
                    <width>1920</width>
                    <height>1080</height>
                    <pixelaspectratio>Square</pixelaspectratio>
                    <anamorphic>FALSE</anamorphic>
                  </samplecharacteristics>
                </video>
              </media>
            </file>
            <sourcetrack>
              <mediatype>video</mediatype>
            </sourcetrack>
            <fielddominance>none</fielddominance>
          </clipitem>
          <clipitem id="Subtitle_IMG_0008.png">
            <!--文件和链接也在网页下方-->
            <name>Subtitle_IMG_0008.png</name>
            <duration>3251</duration>
            <rate>
              <ntsc>FALSE</ntsc>
              <timebase>25</timebase>
            </rate>
            <in>1500</in>
            <out>1544</out>
            <start>712</start>
            <end>756</end>
            <pixelaspectratio>Square</pixelaspectratio>
            <stillframe>TRUE</stillframe>
            <anamorphic>FALSE</anamorphic>
            <alphatype>straight</alphatype>
            <masterclipid>Subtitle_IMG_0008.png1</masterclipid>
            <file id="Subtitle_IMG_0008">
              <name>Subtitle_IMG_0008.png</name>
              <pathurl>D:/W_BW/source/ff/Subtitle_IMG_0008.png</pathurl>
              <rate>
                <ntsc>FALSE</ntsc>
                <timebase>25</timebase>
              </rate>
              <duration>2</duration>
              <width>1920</width>
              <height>1080</height>
              <media>
                <video>
                  <duration>2</duration>
                  <stillframe>TRUE</stillframe>
                  <samplecharacteristics>
                    <rate>
                      <ntsc>FALSE</ntsc>
                      <timebase>25</timebase>
                    </rate>
                    <width>1920</width>
                    <height>1080</height>
                    <pixelaspectratio>Square</pixelaspectratio>
                    <anamorphic>FALSE</anamorphic>
                  </samplecharacteristics>
                </video>
              </media>
            </file>
            <sourcetrack>
              <mediatype>video</mediatype>
            </sourcetrack>
            <fielddominance>none</fielddominance>
          </clipitem>
          <clipitem id="Subtitle_IMG_0009.png">
            <!--好的以上就是我个人简介的全部内容-->
            <name>Subtitle_IMG_0009.png</name>
            <duration>3251</duration>
            <rate>
              <ntsc>FALSE</ntsc>
              <timebase>25</timebase>
            </rate>
            <in>1500</in>
            <out>1551</out>
            <start>1021</start>
            <end>1073</end>
            <pixelaspectratio>Square</pixelaspectratio>
            <stillframe>TRUE</stillframe>
            <anamorphic>FALSE</anamorphic>
            <alphatype>straight</alphatype>
            <masterclipid>Subtitle_IMG_0009.png1</masterclipid>
            <file id="Subtitle_IMG_0009">
              <name>Subtitle_IMG_0009.png</name>
              <pathurl>D:/W_BW/source/ff/Subtitle_IMG_0009.png</pathurl>
              <rate>
                <ntsc>FALSE</ntsc>
                <timebase>25</timebase>
              </rate>
              <duration>2</duration>
              <width>1920</width>
              <height>1080</height>
              <media>
                <video>
                  <duration>2</duration>
                  <stillframe>TRUE</stillframe>
                  <samplecharacteristics>
                    <rate>
                      <ntsc>FALSE</ntsc>
                      <timebase>25</timebase>
                    </rate>
                    <width>1920</width>
                    <height>1080</height>
                    <pixelaspectratio>Square</pixelaspectratio>
                    <anamorphic>FALSE</anamorphic>
                  </samplecharacteristics>
                </video>
              </media>
            </file>
            <sourcetrack>
              <mediatype>video</mediatype>
            </sourcetrack>
            <fielddominance>none</fielddominance>
          </clipitem>
          <clipitem id="Subtitle_IMG_0010.png">
            <!--谢谢观看-->
            <name>Subtitle_IMG_0010.png</name>
            <duration>3251</duration>
            <rate>
              <ntsc>FALSE</ntsc>
              <timebase>25</timebase>
            </rate>
            <in>1500</in>
            <out>1511</out>
            <start>1078</start>
            <end>1090</end>
            <pixelaspectratio>Square</pixelaspectratio>
            <stillframe>TRUE</stillframe>
            <anamorphic>FALSE</anamorphic>
            <alphatype>straight</alphatype>
            <masterclipid>Subtitle_IMG_0010.png1</masterclipid>
            <file id="Subtitle_IMG_0010">
              <name>Subtitle_IMG_0010.png</name>
              <pathurl>D:/W_BW/source/ff/Subtitle_IMG_0010.png</pathurl>
              <rate>
                <ntsc>FALSE</ntsc>
                <timebase>25</timebase>
              </rate>
              <duration>2</duration>
              <width>1920</width>
              <height>1080</height>
              <media>
                <video>
                  <duration>2</duration>
                  <stillframe>TRUE</stillframe>
                  <samplecharacteristics>
                    <rate>
                      <ntsc>FALSE</ntsc>
                      <timebase>25</timebase>
                    </rate>
                    <width>1920</width>
                    <height>1080</height>
                    <pixelaspectratio>Square</pixelaspectratio>
                    <anamorphic>FALSE</anamorphic>
                  </samplecharacteristics>
                </video>
              </media>
            </file>
            <sourcetrack>
              <mediatype>video</mediatype>
            </sourcetrack>
            <fielddominance>none</fielddominance>
          </clipitem>
          <enabled>TRUE</enabled>
          <locked>FALSE</locked>
        </track>
      </video>
    </media>
    <ismasterclip>FALSE</ismasterclip>
  </sequence>
</xmeml>
